# Blender v3.0.1 OBJ File: 'desk.blend'
# www.blender.org
o leg_Cylinder
v -0.500000 0.000000 -0.900000
v 0.000000 1.000000 -0.900000
v 0.500000 0.000000 -0.900000
v 0.000000 0.000000 -1.000000
v -0.500000 0.000000 -1.000000
v 0.000000 1.000000 -1.000000
v 0.500000 0.000000 -1.000000
v 0.070711 1.000000 -0.970711
v 0.100000 1.000000 -0.900000
v 0.070711 1.000000 -0.829289
v -0.000000 0.000000 -0.800000
v -0.500000 0.000000 -0.800000
v -0.000000 1.000000 -0.800000
v 0.500000 0.000000 -0.800000
v -0.500000 0.070711 -0.829289
v -0.070711 1.000000 -0.829289
v 0.500000 0.070711 -0.829289
v -0.500000 0.100000 -0.900000
v -0.100000 1.000000 -0.900000
v 0.500000 0.100000 -0.900000
v -0.500000 0.070711 -0.970711
v -0.070711 1.000000 -0.970711
v 0.500000 0.070711 -0.970711
v 0.070711 0.070711 -0.970711
v 0.070711 0.070711 -0.970711
v 0.100000 0.100000 -0.900000
v 0.100000 0.100000 -0.900000
v 0.070711 0.070711 -0.829289
v -0.070711 0.070711 -0.829289
v -0.100000 0.100000 -0.900000
v -0.070711 0.070711 -0.970711
vn 0.0000 1.0000 0.0000
vn 0.3827 0.0000 -0.9239
vn 0.0000 0.0000 1.0000
vn 0.9239 0.0000 0.3827
vn 0.3827 0.0000 0.9239
vn -0.3827 0.0000 0.9239
vn -0.9239 0.0000 0.3827
vn -0.9239 0.0000 -0.3827
vn -0.3827 0.0000 -0.9239
vn -1.0000 0.0000 0.0000
vn 1.0000 0.0000 0.0000
vn 0.0000 0.3827 0.9239
vn 0.0000 0.3827 -0.9239
vn 0.0000 0.9239 0.3827
vn 0.0000 0.9239 -0.3827
vn -0.1327 0.0000 -0.9912
vn 0.9239 0.0000 -0.3827
vn 0.0000 -1.0000 0.0000
s off
f 2//1 8//1 6//1
f 4//2 6//2 8//2 24//2
f 2//1 9//1 8//1
f 8//3 26//3 27//3
f 2//1 10//1 9//1
f 26//4 9//4 10//4 28//4
f 2//1 13//1 10//1
f 28//5 10//5 13//5 11//5
f 2//1 16//1 13//1
f 16//6 29//6 11//6 13//6
f 2//1 19//1 16//1
f 29//7 16//7 19//7 30//7
f 2//1 22//1 19//1
f 22//8 31//8 30//8 19//8
f 2//1 6//1 22//1
f 6//9 4//9 31//9 22//9
f 15//10 1//10 12//10
f 17//11 14//11 3//11
f 14//12 17//12 28//12 11//12
f 11//12 29//12 15//12 12//12
f 15//10 18//10 1//10
f 17//11 3//11 20//11
f 7//13 4//13 24//13
f 18//14 15//14 29//14 30//14
f 18//10 21//10 1//10
f 20//11 3//11 23//11
f 20//15 23//15 25//15 27//15
f 31//15 21//15 18//15 30//15
f 21//10 5//10 1//10
f 23//11 3//11 7//11
f 7//16 24//16 25//16
f 21//13 31//13 4//13 5//13
f 25//3 24//3 8//3
f 8//17 9//17 26//17
f 27//17 25//17 8//17
f 27//3 26//3 28//3
f 25//13 23//13 7//13
f 17//14 20//14 27//14 28//14
f 5//18 4//18 1//18
f 3//18 14//18 11//18
f 11//18 12//18 1//18 4//18 7//18 3//18
